<svg width="26" height="26" viewBox="0 0 26 26" fill="none" xmlns="http://www.w3.org/2000/svg">
<path d="M12.2871 1.51488C12.571 0.91168 13.429 0.911681 13.7129 1.51488L15.1415 4.55064C15.335 4.96195 15.8356 5.12458 16.2339 4.90559L19.174 3.28932C19.7582 2.96817 20.4524 3.47252 20.3275 4.12737L19.6989 7.42305C19.6137 7.86959 19.9231 8.29535 20.3741 8.35234L23.7027 8.77291C24.3641 8.85647 24.6293 9.67253 24.1433 10.1289L21.6976 12.4257C21.3662 12.7369 21.3662 13.2631 21.6976 13.5743L24.1433 15.8711C24.6293 16.3275 24.3641 17.1435 23.7027 17.2271L20.3741 17.6477C19.9231 17.7046 19.6137 18.1304 19.6989 18.5769L20.3275 21.8726C20.4524 22.5275 19.7582 23.0318 19.174 22.7107L16.2339 21.0944C15.8356 20.8754 15.335 21.038 15.1415 21.4494L13.7129 24.4851C13.429 25.0883 12.571 25.0883 12.2871 24.4851L10.8585 21.4494C10.665 21.038 10.1644 20.8754 9.76608 21.0944L6.82595 22.7107C6.24175 23.0318 5.54757 22.5275 5.67248 21.8726L6.3011 18.5769C6.38627 18.1304 6.07693 17.7046 5.62593 17.6477L2.2973 17.2271C1.6359 17.1435 1.37075 16.3275 1.85671 15.8711L4.30243 13.5743C4.6338 13.2631 4.6338 12.7369 4.30243 12.4257L1.85671 10.1289C1.37075 9.67253 1.6359 8.85647 2.2973 8.77291L5.62594 8.35234C6.07693 8.29535 6.38627 7.86959 6.3011 7.42305L5.67248 4.12737C5.54757 3.47252 6.24175 2.96817 6.82596 3.28932L9.76608 4.90559C10.1644 5.12458 10.665 4.96195 10.8585 4.55064L12.2871 1.51488Z" fill="#FC0088"/>
<path d="M12.9212 16.9733C12.4296 16.9733 12.0104 16.9166 11.6637 16.8031C11.3171 16.6834 11.0334 16.5321 10.8128 16.3493C10.5922 16.1602 10.4283 15.9617 10.3212 15.7537C10.214 15.5394 10.1573 15.3345 10.151 15.1391C10.151 15.0824 10.1699 15.0351 10.2077 14.9973C10.2519 14.9595 10.3023 14.9406 10.359 14.9406H11.5881C11.6637 14.9406 11.7236 14.9564 11.7677 14.9879C11.8119 15.0131 11.8528 15.0572 11.8906 15.1202C11.9411 15.24 12.0136 15.3377 12.1081 15.4133C12.209 15.489 12.3287 15.5425 12.4674 15.5741C12.606 15.5993 12.7573 15.6119 12.9212 15.6119C13.2426 15.6119 13.4916 15.5394 13.6681 15.3944C13.8509 15.2431 13.9423 15.0383 13.9423 14.7799C13.9423 14.5088 13.8572 14.3166 13.687 14.2031C13.5168 14.0834 13.2742 14.0235 12.959 14.0235H11.9096C11.8402 14.0235 11.7835 14.0015 11.7394 13.9573C11.6953 13.9132 11.6732 13.8565 11.6732 13.7871V13.2577C11.6732 13.1821 11.6889 13.1159 11.7205 13.0591C11.752 13.0024 11.7866 12.9615 11.8245 12.9362L13.375 11.6221H10.7466C10.6836 11.6221 10.6269 11.6 10.5765 11.5559C10.5323 11.5118 10.5103 11.455 10.5103 11.3857V10.497C10.5103 10.4276 10.5323 10.3709 10.5765 10.3268C10.6269 10.2827 10.6836 10.2606 10.7466 10.2606H15.0957C15.1651 10.2606 15.2218 10.2827 15.2659 10.3268C15.3163 10.3709 15.3416 10.4276 15.3416 10.497V11.3006C15.3416 11.3699 15.3258 11.433 15.2943 11.4897C15.2628 11.5401 15.2281 11.5811 15.1903 11.6126L13.7532 12.9457L13.8194 12.9646C14.1786 13.0087 14.5001 13.1064 14.7837 13.2577C15.0674 13.4027 15.2911 13.6075 15.455 13.8722C15.6189 14.137 15.7008 14.4742 15.7008 14.8839C15.7008 15.3125 15.5779 15.6844 15.3321 15.9995C15.0926 16.3084 14.7648 16.5479 14.3488 16.7181C13.9328 16.8882 13.457 16.9733 12.9212 16.9733Z" fill="white"/>
</svg>
